<?xml version="1.0" encoding="iso-8859-1"?>
<!-- Generator: Adobe Illustrator 19.0.0, SVG Export Plug-In . SVG Version: 6.00 Build 0)  -->
<svg version="1.1" id="Capa_1" xmlns="http://www.w3.org/2000/svg" xmlns:xlink="http://www.w3.org/1999/xlink" x="0px" y="0px"
	 viewBox="0 0 512.004 512.004" style="enable-background:new 0 0 512.004 512.004;" xml:space="preserve">
<g>
	<rect x="224.002" y="288.002" style="fill:#FFA000;" width="64" height="192"/>
	<path style="fill:#FFA000;" d="M349.09,269.762c-7.776,0-14.592-5.696-15.776-13.6c-1.312-8.736,4.672-16.896,13.44-18.208
		C452.098,222.05,474.21,107.074,478.818,64.002H368.002c-8.832,0-16-7.168-16-16s7.168-16,16-16h128
		c4.288,0,8.384,1.728,11.392,4.768c3.008,3.04,4.672,7.168,4.608,11.456c-0.032,1.984-4.576,197.856-160.512,221.376
		C350.69,269.698,349.922,269.762,349.09,269.762z"/>
	<path style="fill:#FFA000;" d="M162.882,269.762c-0.8,0-1.6-0.064-2.4-0.16C4.578,246.05,0.034,50.21,0.002,48.226
		c-0.064-4.288,1.6-8.416,4.608-11.456c3.008-3.04,7.104-4.768,11.392-4.768h128c8.832,0,16,7.168,16,16s-7.168,16-16,16H33.058
		c4.256,43.264,25.6,157.856,132.224,173.952c8.736,1.344,14.752,9.472,13.44,18.208
		C177.506,264.066,170.658,269.762,162.882,269.762z"/>
</g>
<path style="fill:#FFC107;" d="M368.002,0.002h-224c-8.832,0-16,7.168-16,16v176c0,70.592,57.408,128,128,128s128-57.408,128-128
	v-176C384.002,7.17,376.834,0.002,368.002,0.002z"/>
<path style="fill:#FAFAFA;" d="M304.002,184.002c0-22.048-21.536-40-48-40c-9.792,0-16-5.248-16-8s6.208-8,16-8
	c4.864,0,9.216,1.184,12.544,3.392c7.392,4.864,17.312,2.912,22.208-4.416c4.896-7.36,2.944-17.312-4.416-22.208
	c-4.352-2.88-9.184-5.088-14.336-6.56V80.002c0-8.832-7.168-16-16-16c-8.832,0-16,7.168-16,16v18.464
	c-18.592,5.504-32,20.192-32,37.536c0,22.048,21.536,40,48,40c9.792,0,16,5.248,16,8s-6.208,8-16,8
	c-4.864,0-9.216-1.184-12.544-3.392c-7.36-4.832-17.28-2.912-22.208,4.416c-4.896,7.36-2.944,17.312,4.416,22.208
	c4.352,2.88,9.184,5.088,14.336,6.56v18.208c0,8.832,7.168,16,16,16c8.832,0,16-7.168,16-16v-18.464
	C290.594,216.034,304.002,201.378,304.002,184.002z"/>
<path style="fill:#546E7A;" d="M352.002,480.002h-192v-80c0-8.832,7.168-16,16-16h160c8.832,0,16,7.168,16,16V480.002z"/>
<path style="fill:#455A64;" d="M384.002,512.002h-256v-48c0-8.832,7.168-16,16-16h224c8.832,0,16,7.168,16,16V512.002z"/>
<g>
</g>
<g>
</g>
<g>
</g>
<g>
</g>
<g>
</g>
<g>
</g>
<g>
</g>
<g>
</g>
<g>
</g>
<g>
</g>
<g>
</g>
<g>
</g>
<g>
</g>
<g>
</g>
<g>
</g>
</svg>
